HIERARCHY
ROOT hips
{
  OFFSET 0 9.313263304106702 1.2146308026317778
  CHANNELS 6 Xposition Yposition Zposition Yrotation Xrotation Zrotation
  JOINT spine
  {
    OFFSET -6.402521e-31 0.5173342420023708 0
    CHANNELS 3 Yrotation Xrotation Zrotation
    JOINT chest
    {
      OFFSET 0 1.130544299341115 0
      CHANNELS 3 Yrotation Xrotation Zrotation
      JOINT upperChest
      {
        OFFSET 0 1.0863555061129995 0
        CHANNELS 3 Yrotation Xrotation Zrotation
        JOINT neck
        {
          OFFSET 0 1.3773706506454462 0
          CHANNELS 3 Yrotation Xrotation Zrotation
          JOINT head
          {
            OFFSET 0 0.7374408940073979 0
            CHANNELS 3 Yrotation Xrotation Zrotation
            JOINT leftEye
            {
              OFFSET 0.25066580148932727 0.6408406698778757 0.15963719178883284
              CHANNELS 3 Yrotation Xrotation Zrotation
              End Site
              {
                OFFSET 0.25066580148932727 0.6408406698778757 0.15963719178883284
              }
            }
            JOINT rightEye
            {
              OFFSET -0.25066576739704244 0.6408406384191823 0.15963727561643756
              CHANNELS 3 Yrotation Xrotation Zrotation
              End Site
              {
                OFFSET -0.25066576739704244 0.6408406384191823 0.15963727561643756
              }
            }
          }
        }
        JOINT leftShoulder
        {
          OFFSET 0.3761817444281191 1.0539491987447769 0
          CHANNELS 3 Yrotation Xrotation Zrotation
          JOINT leftUpperArm
          {
            OFFSET 0.8702844380000002 0 0
            CHANNELS 3 Yrotation Xrotation Zrotation
            JOINT leftLowerArm
            {
              OFFSET 2.198527310000323 0 0
              CHANNELS 3 Yrotation Xrotation Zrotation
              JOINT leftHand
              {
                OFFSET 2.146852313968281 0 0
                CHANNELS 3 Yrotation Xrotation Zrotation
                JOINT leftIndexProximal
                {
                  OFFSET 0.6585177834681599 0.07380250427007962 0.18382213159631788
                  CHANNELS 3 Yrotation Xrotation Zrotation
                  JOINT leftIndexIntermediate
                  {
                    OFFSET 0.3323021288626682 -0.009606893929485771 -0.012820872253340998
                    CHANNELS 3 Yrotation Xrotation Zrotation
                    JOINT leftIndexDistal
                    {
                      OFFSET 0.2045908926985518 -0.0071133989147997845 -0.006828784783599051
                      CHANNELS 3 Yrotation Xrotation Zrotation
                      End Site
                      {
                        OFFSET 0.2045908926985518 -0.0071133989147997845 -0.006828784783599051
                      }
                    }
                  }
                }
                JOINT leftLittleProximal
                {
                  OFFSET 0.6110054258835662 0.07380246363125398 -0.29175655876064077
                  CHANNELS 3 Yrotation Xrotation Zrotation
                  JOINT leftLittleIntermediate
                  {
                    OFFSET 0.3144281999999998 -2.5124724523095665e-9 1.8658118799974588e-7
                    CHANNELS 3 Yrotation Xrotation Zrotation
                    JOINT leftLittleDistal
                    {
                      OFFSET 0.18116185580251631 0.002815456192251098 0.0034826415518049436
                      CHANNELS 3 Yrotation Xrotation Zrotation
                      End Site
                      {
                        OFFSET 0.18116185580251631 0.002815456192251098 0.0034826415518049436
                      }
                    }
                  }
                }
                JOINT leftMiddleProximal
                {
                  OFFSET 0.6637478005691111 0.07380246480054087 0.02046981859247815
                  CHANNELS 3 Yrotation Xrotation Zrotation
                  JOINT leftMiddleIntermediate
                  {
                    OFFSET 0.3705733999999994 -2.9611069152224445e-9 9.35054791928458e-8
                    CHANNELS 3 Yrotation Xrotation Zrotation
                    JOINT leftMiddleDistal
                    {
                      OFFSET 0.22861063500000056 -1.82673876025774e-9 -1.6740782024515788e-7
                      CHANNELS 3 Yrotation Xrotation Zrotation
                      End Site
                      {
                        OFFSET 0.22861063500000056 -1.82673876025774e-9 -1.6740782024515788e-7
                      }
                    }
                  }
                }
                JOINT leftRingProximal
                {
                  OFFSET 0.6561845547265777 0.07380246406440083 -0.13588087571513918
                  CHANNELS 3 Yrotation Xrotation Zrotation
                  JOINT leftRingIntermediate
                  {
                    OFFSET 0.3437531000000005 -2.746796123886952e-9 1.4935781944558357e-7
                    CHANNELS 3 Yrotation Xrotation Zrotation
                    JOINT leftRingDistal
                    {
                      OFFSET 0.1983118991198174 -0.002467117924596085 -0.004538141969590015
                      CHANNELS 3 Yrotation Xrotation Zrotation
                      End Site
                      {
                        OFFSET 0.1983118991198174 -0.002467117924596085 -0.004538141969590015
                      }
                    }
                  }
                }
                JOINT leftThumbProximal
                {
                  OFFSET 0.09767004258864787 -0.14930060425447422 -0.07008212897521154
                  CHANNELS 3 Yrotation Xrotation Zrotation
                  JOINT leftThumbIntermediate
                  {
                    OFFSET 0.36682123028154767 -0.015768465060082004 0.28693641268151077
                    CHANNELS 3 Yrotation Xrotation Zrotation
                    JOINT leftThumbDistal
                    {
                      OFFSET 0.21091084272403915 -0.016756648201192714 0.1933767059105508
                      CHANNELS 3 Yrotation Xrotation Zrotation
                      End Site
                      {
                        OFFSET 0.21091084272403915 -0.016756648201192714 0.1933767059105508
                      }
                    }
                  }
                }
              }
            }
          }
        }
        JOINT rightShoulder
        {
          OFFSET -0.37618174442811925 1.0539491987447769 0
          CHANNELS 3 Yrotation Xrotation Zrotation
          JOINT rightUpperArm
          {
            OFFSET -0.870284438 0 0
            CHANNELS 3 Yrotation Xrotation Zrotation
            JOINT rightLowerArm
            {
              OFFSET -2.1985273100003235 0 0
              CHANNELS 3 Yrotation Xrotation Zrotation
              JOINT rightHand
              {
                OFFSET -2.1468523139682802 0 0
                CHANNELS 3 Yrotation Xrotation Zrotation
                JOINT rightIndexProximal
                {
                  OFFSET -0.6585177834681599 0.07380250427007962 0.18382213159631788
                  CHANNELS 3 Yrotation Xrotation Zrotation
                  JOINT rightIndexIntermediate
                  {
                    OFFSET -0.3323021288626682 -0.009606893929485771 -0.012820872253340998
                    CHANNELS 3 Yrotation Xrotation Zrotation
                    JOINT rightIndexDistal
                    {
                      OFFSET -0.2045908926985518 -0.0071133989147997845 -0.006828784783599051
                      CHANNELS 3 Yrotation Xrotation Zrotation
                      End Site
                      {
                        OFFSET -0.2045908926985518 -0.0071133989147997845 -0.006828784783599051
                      }
                    }
                  }
                }
                JOINT rightLittleProximal
                {
                  OFFSET -0.6110054258835662 0.07380246363125398 -0.29175655876064077
                  CHANNELS 3 Yrotation Xrotation Zrotation
                  JOINT rightLittleIntermediate
                  {
                    OFFSET -0.3144281999999998 -2.5124724523095665e-9 1.8658118799974588e-7
                    CHANNELS 3 Yrotation Xrotation Zrotation
                    JOINT rightLittleDistal
                    {
                      OFFSET -0.18116185580251631 0.002815456192251098 0.0034826415518049436
                      CHANNELS 3 Yrotation Xrotation Zrotation
                      End Site
                      {
                        OFFSET -0.18116185580251631 0.002815456192251098 0.0034826415518049436
                      }
                    }
                  }
                }
                JOINT rightMiddleProximal
                {
                  OFFSET -0.6637478005691111 0.07380246480054087 0.02046981859247815
                  CHANNELS 3 Yrotation Xrotation Zrotation
                  JOINT rightMiddleIntermediate
                  {
                    OFFSET -0.3705733999999994 -2.9611069152224445e-9 9.35054791928458e-8
                    CHANNELS 3 Yrotation Xrotation Zrotation
                    JOINT rightMiddleDistal
                    {
                      OFFSET -0.22861063500000056 -1.82673876025774e-9 -1.6740782024515788e-7
                      CHANNELS 3 Yrotation Xrotation Zrotation
                      End Site
                      {
                        OFFSET -0.22861063500000056 -1.82673876025774e-9 -1.6740782024515788e-7
                      }
                    }
                  }
                }
                JOINT rightRingProximal
                {
                  OFFSET -0.6561845547265777 0.07380246406440083 -0.13588087571513918
                  CHANNELS 3 Yrotation Xrotation Zrotation
                  JOINT rightRingIntermediate
                  {
                    OFFSET -0.3437531000000005 -2.746796123886952e-9 1.4935781944558357e-7
                    CHANNELS 3 Yrotation Xrotation Zrotation
                    JOINT rightRingDistal
                    {
                      OFFSET -0.1983118991198174 -0.002467117924596085 -0.004538141969590015
                      CHANNELS 3 Yrotation Xrotation Zrotation
                      End Site
                      {
                        OFFSET -0.1983118991198174 -0.002467117924596085 -0.004538141969590015
                      }
                    }
                  }
                }
                JOINT rightThumbProximal
                {
                  OFFSET -0.09767004258864787 -0.14930060425447422 -0.07008212897521154
                  CHANNELS 3 Yrotation Xrotation Zrotation
                  JOINT rightThumbIntermediate
                  {
                    OFFSET -0.36682123028154767 -0.015768465060082004 0.28693641268151077
                    CHANNELS 3 Yrotation Xrotation Zrotation
                    JOINT rightThumbDistal
                    {
                      OFFSET -0.21091084272403915 -0.016756648201192714 0.1933767059105508
                      CHANNELS 3 Yrotation Xrotation Zrotation
                      End Site
                      {
                        OFFSET -0.21091084272403915 -0.016756648201192714 0.1933767059105508
                      }
                    }
                  }
                }
              }
            }
          }
        }
      }
    }
  }
  JOINT leftUpperLeg
  {
    OFFSET 0.7715603 -0.3993844658041501 0
    CHANNELS 3 Yrotation Xrotation Zrotation
    JOINT leftLowerLeg
    {
      OFFSET 0 -3.529830000249343 0
      CHANNELS 3 Yrotation Xrotation Zrotation
      JOINT leftFoot
      {
        OFFSET 0 -4.154939295409685 0.004208579085223096
        CHANNELS 3 Yrotation Xrotation Zrotation
        JOINT leftToes
        {
          OFFSET 0 -0.6353414391261847 1.10414981190622
          CHANNELS 3 Yrotation Xrotation Zrotation
          End Site
          {
            OFFSET 0 -0.6015820691747853 1.10414981190622
          }
        }
      }
    }
  }
  JOINT rightUpperLeg
  {
    OFFSET -0.7715603 -0.3993844658041501 0
    CHANNELS 3 Yrotation Xrotation Zrotation
    JOINT rightLowerLeg
    {
      OFFSET 0 -3.529830000249343 0
      CHANNELS 3 Yrotation Xrotation Zrotation
      JOINT rightFoot
      {
        OFFSET 0 -4.154939295409685 0.004208579085223096
        CHANNELS 3 Yrotation Xrotation Zrotation
        JOINT rightToes
        {
          OFFSET 0 -0.6353414391261847 1.10414981190622
          CHANNELS 3 Yrotation Xrotation Zrotation
          End Site
          {
            OFFSET 0 -0.6015820691747853 1.10414981190622
          }
        }
      }
    }
  }
}
MOTION
Frames: 4
Frame Time: 0.03333333333333333
0.2648725563829596 8.692003596912729 -1.4020007485905899 -2.454913932140919 -7.616499193847008 0.6209593410283824 0.3250389213405991 0.344464923399716 1.7208087550005713 1.5266325476297369 1.34053187589055 6.033751511147448 0 0 0 -2.1420592896479773 -8.355607224463933 10.421611716798427 5.878285550207426 -26.760755570153783 -12.881566774826725 0 0 0 0 0 0 -15.212564165374006 3.2002167381166227 14.931641032571772 -142.88184650448767 -63.279593908125 112.77657818956995 -88.39654631550933 -0.0000639940124644929 0.00008265115396099623 -0.5750069959012887 21.31963781139391 -2.0634645746659563 6.70672552315535 5.186668668225354 -75.44976428215264 6.839811094475245 8.077352363917493 -99.4952887468626 5.278389581358825 2.452366576149287 -49.762080852413106 7.818696306039431 9.3362991868295 -74.79937029321982 2.438282166718037 8.319845445609808 -100.01373688826561 5.206550655445217 2.6073243150450915 -49.75630330793507 6.706667554315552 5.186191589954537 -75.43390707592444 6.839465485595335 8.071177276235824 -99.51113487982971 5.287771894585295 2.453699684642248 -49.76203970211371 6.708209244246857 5.1922577549053 -75.44964249286187 6.83513068197531 8.071163479189877 -99.49514137260151 5.285525836532221 2.4533687574260132 -49.76204331558346 23.19632010497273 -19.23296258451388 4.804991925268941 25.63521095575882 29.409424687749173 5.675744247980717 10.096646572670478 11.556101444403927 1.7576272583388906 24.112342046141563 4.524395965818938 -5.347786287846171 65.40054616985616 -63.13785817479722 -38.07618103236438 93.15727097202733 0.000013135354967870077 6.618359622784102e-8 18.2419668637933 -23.657777309689813 -27.152310918850816 -6.990767936890154 6.637879047371779 86.87206289984422 -6.9260541840146015 6.124937400438816 82.89115545625063 -4.6412736595923 1.7546257276176067 41.48972268171248 -6.986515961144754 6.559545900708055 86.87195596746655 -6.986247718245938 5.98000565470955 82.89307068726258 -4.712942140837595 1.6889150366319905 41.49195210370604 -6.992918797631387 6.676495626349009 86.87181845992185 -6.883711894210101 6.095743666129838 82.89154649330897 -4.668728316823003 1.7528936767873704 41.48977928343874 -6.988735784855523 6.6012504429941865 86.87219901965513 -6.964988721874453 6.142806732924074 82.8909161392986 -4.638847170466195 1.7684445014215089 41.48924151835357 -9.476413127551426 -12.709057430443085 3.5586075361404017 -51.43552997707893 37.628910350889036 -25.182879150571257 -18.51077351996466 18.31823688834214 -5.094536178680365 7.087105595204447 -4.348305552808789 2.3953270389221513 10.357717289177762 28.087720248600945 5.46042124378401 1.8120941721684922 -15.834140704564758 -5.592005309775219 6.930126001252595e-10 -0.0026525121360025427 0.0000017067482353894537 -9.701151467883507 -6.2861662237602225 -9.676790251118547 -1.338653765707488 27.001961761562203 -0.6993656544603654 -1.229787269492574 -12.88054950311603 8.149947456876518 -7.487854191048546e-7 -0.00005571477520204181 0.0000025613028223153146
0.27767295187169855 8.653651150790127 -1.4347915394952422 -3.6006201468028074 -7.7817547275703625 0.6003072979050239 0.34210845095472003 0.8314963952836593 1.3129313090449897 1.4431284371125905 3.3198178065125377 5.695766781865747 0 0 0 -2.171662515023574 -11.268239392639238 10.230187705267316 5.94305888440816 -26.216116110264405 -12.032784494628576 0 0 0 0 0 0 -11.862443663958652 2.651638070606589 14.731211863628785 -162.2913357016361 -53.028556055038415 131.254863823885 -90.27466257234626 -0.00006876776998633182 0.00005143941924987755 -1.0050427141746774 13.524859156954763 4.044139578497615 6.70672552315535 5.186668668225354 -75.44976428215264 6.839811094475245 8.077352363917493 -99.4952887468626 5.278389581358825 2.452366576149287 -49.762080852413106 7.818696306039431 9.3362991868295 -74.79937029321982 2.438282166718037 8.319845445609808 -100.01373688826561 5.206550655445217 2.6073243150450915 -49.75630330793507 6.706667554315552 5.186191589954537 -75.43390707592444 6.839465485595335 8.071177276235824 -99.51113487982971 5.287771894585295 2.453699684642248 -49.76203970211371 6.708209244246857 5.1922577549053 -75.44964249286187 6.83513068197531 8.071163479189877 -99.49514137260151 5.285525836532221 2.4533687574260132 -49.76204331558346 23.19632010497273 -19.23296258451388 4.804991925268941 25.63521095575882 29.409424687749173 5.675744247980717 10.096646572670478 11.556101444403927 1.7576272583388906 22.94160030472447 4.391045474137049 -8.707631006357408 84.08541849312172 -69.88369790204887 -53.666635553446355 87.5001710124363 0.000018881528051796446 -0.00001666535093285379 19.417559325049556 -28.635819793281584 -26.74736932633567 -6.990767936890154 6.637879047371779 86.87206289984422 -6.9260541840146015 6.124937400438816 82.89115545625063 -4.6412736595923 1.7546257276176067 41.48972268171248 -6.986515961144754 6.559545900708055 86.87195596746655 -6.986247718245938 5.98000565470955 82.89307068726258 -4.712942140837595 1.6889150366319905 41.49195210370604 -6.992918797631387 6.676495626349009 86.87181845992185 -6.883711894210101 6.095743666129838 82.89154649330897 -4.668728316823003 1.7528936767873704 41.48977928343874 -6.988735784855523 6.6012504429941865 86.87219901965513 -6.964988721874453 6.142806732924074 82.8909161392986 -4.638847170466195 1.7684445014215089 41.48924151835357 -9.476413127551426 -12.709057430443085 3.5586075361404017 -51.43552997707893 37.628910350889036 -25.182879150571257 -18.51077351996466 18.31823688834214 -5.094536178680365 8.147551045525356 -5.328103484104599 2.481480900223112 10.67869672002956 30.102972576817592 5.941549256608468 1.9159015595206021 -16.750604362105 -5.704201441305901 6.930126001252595e-10 -0.0026525121360025427 0.0000017067482353894537 -9.114204983419068 -7.580107719745653 -9.748099025370694 -0.3498412946307091 29.0613596182894 -0.21468600783380581 -1.2054507085928174 -13.56066214205209 7.990971340189121 -7.487854191048546e-7 -0.00005571477520204181 0.0000025613028223153146
0.27780167081139306 8.631935986605557 -1.416720061431832 -4.444052521886725 -8.89153868999285 0.15609774364341034 0.26383225040325425 1.2260494493680816 0.8064834162142592 0.9116696637112358 4.941914121451515 4.8490030699802675 0 0 0 -1.9320060280670062 -8.439873182491635 9.602200209193139 4.691875996285466 -24.565602475219116 -9.266704678495998 0 0 0 0 0 0 -10.509362142855165 2.404380890280858 16.432078165440647 -164.33471313533556 -51.39961258624349 130.33814733640816 -82.02615719859972 -0.00005179751082793079 0.00005783792094385579 -7.211389152953105 3.582085579729689 12.794531803376795 6.70672552315535 5.186668668225354 -75.44976428215264 6.839811094475245 8.077352363917493 -99.4952887468626 5.278389581358825 2.452366576149287 -49.762080852413106 7.818696306039431 9.3362991868295 -74.79937029321982 2.438282166718037 8.319845445609808 -100.01373688826561 5.206550655445217 2.6073243150450915 -49.75630330793507 6.706667554315552 5.186191589954537 -75.43390707592444 6.839465485595335 8.071177276235824 -99.51113487982971 5.287771894585295 2.453699684642248 -49.76203970211371 6.708209244246857 5.1922577549053 -75.44964249286187 6.83513068197531 8.071163479189877 -99.49514137260151 5.285525836532221 2.4533687574260132 -49.76204331558346 23.19632010497273 -19.23296258451388 4.804991925268941 25.63521095575882 29.409424687749173 5.675744247980717 10.096646572670478 11.556101444403927 1.7576272583388906 23.243941296197168 4.496109507358756 -11.239635291763408 85.35745514004572 -69.68631945352075 -53.49128136251458 73.88567626675264 0.000014082370060496732 0.0000035417162835410514 19.310990866988636 -34.016317782524474 -25.748495908658235 -6.990767936890154 6.637879047371779 86.87206289984422 -6.9260541840146015 6.124937400438816 82.89115545625063 -4.6412736595923 1.7546257276176067 41.48972268171248 -6.986515961144754 6.559545900708055 86.87195596746655 -6.986247718245938 5.98000565470955 82.89307068726258 -4.712942140837595 1.6889150366319905 41.49195210370604 -6.992918797631387 6.676495626349009 86.87181845992185 -6.883711894210101 6.095743666129838 82.89154649330897 -4.668728316823003 1.7528936767873704 41.48977928343874 -6.988735784855523 6.6012504429941865 86.87219901965513 -6.964988721874453 6.142806732924074 82.8909161392986 -4.638847170466195 1.7684445014215089 41.48924151835357 -9.476413127551426 -12.709057430443085 3.5586075361404017 -51.43552997707893 37.628910350889036 -25.182879150571257 -18.51077351996466 18.31823688834214 -5.094536178680365 8.93696754310406 -4.610067579675072 3.2656804912996646 10.813771458496845 31.312405436971083 6.2104755496945625 2.208872988131859 -17.631687412399994 -6.010537757455137 6.930126001252595e-10 -0.0026525121360025427 0.0000017067482353894537 -8.82011627134455 -6.75591953731232 -9.479548843266512 0.28447621162617837 29.91440963899022 0.129695662659537 -1.2080683311436733 -14.131223836306768 7.869431152045559 -7.487854191048546e-7 -0.00005571477520204181 0.0000025613028223153146
0.27139371091669257 8.641170154918322 -1.340895583975999 -4.79494224012962 -11.08873962268549 -0.78740992781718 0.16336439446287124 1.3074000279091471 0.21050701239591643 0.15777690056063615 5.295068721966631 3.349511698066377 0 0 0 -1.484628753198012 -0.2677894002957424 8.820018803499384 2.8195797029610716 -20.65927997000748 -5.37239419786472 0 0 0 0 0 0 -11.488865172084036 2.618395181670083 19.08456749657793 -159.881443059307 -55.108935435715374 115.21395053809067 -65.80437680001913 -0.00006376860976021654 0.00004175678895090097 -18.60750484806036 -3.526726699661192 21.61696082112674 6.70672552315535 5.186668668225354 -75.44976428215264 6.839811094475245 8.077352363917493 -99.4952887468626 5.278389581358825 2.452366576149287 -49.762080852413106 7.818696306039431 9.3362991868295 -74.79937029321982 2.438282166718037 8.319845445609808 -100.01373688826561 5.206550655445217 2.6073243150450915 -49.75630330793507 6.706667554315552 5.186191589954537 -75.43390707592444 6.839465485595335 8.071177276235824 -99.51113487982971 5.287771894585295 2.453699684642248 -49.76203970211371 6.708209244246857 5.1922577549053 -75.44964249286187 6.83513068197531 8.071163479189877 -99.49514137260151 5.285525836532221 2.4533687574260132 -49.76204331558346 23.19632010497273 -19.23296258451388 4.804991925268941 25.63521095575882 29.409424687749173 5.675744247980717 10.096646572670478 11.556101444403927 1.7576272583388906 24.83593384397544 4.927346829340213 -12.069754066400353 67.8544078220776 -60.37781206709351 -32.01710347463756 56.59341606618666 0.000006384299219665033 -0.00001675161775359006 18.47749506950614 -38.948875782491484 -24.524022125131243 -6.990767936890154 6.637879047371779 86.87206289984422 -6.9260541840146015 6.124937400438816 82.89115545625063 -4.6412736595923 1.7546257276176067 41.48972268171248 -6.986515961144754 6.559545900708055 86.87195596746655 -6.986247718245938 5.98000565470955 82.89307068726258 -4.712942140837595 1.6889150366319905 41.49195210370604 -6.992918797631387 6.676495626349009 86.87181845992185 -6.883711894210101 6.095743666129838 82.89154649330897 -4.668728316823003 1.7528936767873704 41.48977928343874 -6.988735784855523 6.6012504429941865 86.87219901965513 -6.964988721874453 6.142806732924074 82.8909161392986 -4.638847170466195 1.7684445014215089 41.48924151835357 -9.476413127551426 -12.709057430443085 3.5586075361404017 -51.43552997707893 37.628910350889036 -25.182879150571257 -18.51077351996466 18.31823688834214 -5.094536178680365 9.12780894765655 -1.6603715441733782 4.753154987812095 10.585601224992583 31.064238273214308 6.0665476328479 2.6990539390379036 -18.220196145785234 -6.423169866892743 6.930126001252595e-10 -0.0026525121360025427 0.0000017067482353894537 -8.759264312040697 -3.159017431854036 -8.846009603045314 0.2361964815197132 28.756450897772485 0.10612933355271897 -1.2363490119593232 -14.25324089028392 7.920241021684606 -7.487854191048546e-7 -0.00005571477520204181 0.0000025613028223153146
